<?xml version="1.0" encoding="UTF-8" standalone="no"?><svg xmlns:svg="http://www.w3.org/2000/svg" xmlns="http://www.w3.org/2000/svg" xmlns:xlink="http://www.w3.org/1999/xlink" version="1.0" width="40px" height="40px" viewBox="0 0 128 128" xml:space="preserve"><g><path d="M40.73 13.1l-4.04-7A63.67 63.67 0 0 1 61.5.06v8a55.83 55.83 0 0 0-20.77 5.05z" fill="#29327f" fill-opacity="1"/><path d="M40.73 13.1l-4.04-7A63.67 63.67 0 0 1 61.5.06v8a55.83 55.83 0 0 0-20.77 5.05z" fill="#f9f9fb" fill-opacity="0.03" transform="rotate(30 64 64)"/><path d="M40.73 13.1l-4.04-7A63.67 63.67 0 0 1 61.5.06v8a55.83 55.83 0 0 0-20.77 5.05z" fill="#ecedf3" fill-opacity="0.09" transform="rotate(60 64 64)"/><path d="M40.73 13.1l-4.04-7A63.67 63.67 0 0 1 61.5.06v8a55.83 55.83 0 0 0-20.77 5.05z" fill="#dbdce9" fill-opacity="0.17" transform="rotate(90 64 64)"/><path d="M40.73 13.1l-4.04-7A63.67 63.67 0 0 1 61.5.06v8a55.83 55.83 0 0 0-20.77 5.05z" fill="#c8cbde" fill-opacity="0.25" transform="rotate(120 64 64)"/><path d="M40.73 13.1l-4.04-7A63.67 63.67 0 0 1 61.5.06v8a55.83 55.83 0 0 0-20.77 5.05z" fill="#b4b7d2" fill-opacity="0.35" transform="rotate(150 64 64)"/><path d="M40.73 13.1l-4.04-7A63.67 63.67 0 0 1 61.5.06v8a55.83 55.83 0 0 0-20.77 5.05z" fill="#a0a4c6" fill-opacity="0.44" transform="rotate(180 64 64)"/><path d="M40.73 13.1l-4.04-7A63.67 63.67 0 0 1 61.5.06v8a55.83 55.83 0 0 0-20.77 5.05z" fill="#8a8eb9" fill-opacity="0.55" transform="rotate(210 64 64)"/><path d="M40.73 13.1l-4.04-7A63.67 63.67 0 0 1 61.5.06v8a55.83 55.83 0 0 0-20.77 5.05z" fill="#757aac" fill-opacity="0.65" transform="rotate(240 64 64)"/><path d="M40.73 13.1l-4.04-7A63.67 63.67 0 0 1 61.5.06v8a55.83 55.83 0 0 0-20.77 5.05z" fill="#6066a0" fill-opacity="0.75" transform="rotate(270 64 64)"/><path d="M40.73 13.1l-4.04-7A63.67 63.67 0 0 1 61.5.06v8a55.83 55.83 0 0 0-20.77 5.05z" fill="#4c5494" fill-opacity="0.84" transform="rotate(300 64 64)"/><path d="M40.73 13.1l-4.04-7A63.67 63.67 0 0 1 61.5.06v8a55.83 55.83 0 0 0-20.77 5.05z" fill="#3b438a" fill-opacity="0.92" transform="rotate(330 64 64)"/><animateTransform attributeName="transform" type="rotate" values="0 64 64;30 64 64;60 64 64;90 64 64;120 64 64;150 64 64;180 64 64;210 64 64;240 64 64;270 64 64;300 64 64;330 64 64" calcMode="discrete" dur="1080ms" repeatCount="indefinite"></animateTransform></g></svg>